<svg xmlns="http://www.w3.org/2000/svg" viewBox="0 0 200 200" width="200" height="200" role="img" aria-label="AI BOX">
  <title>AI BOX</title>
  <defs>
    <linearGradient id="ai_box_gradient" x1="0" y1="0" x2="1" y2="1">
      <stop offset="0%" stop-color="#ffb547"/>
      <stop offset="100%" stop-color="#00d4a8"/>
    </linearGradient>
  </defs>

  <!-- Outer rounded-square ring (transparent middle via even-odd fill) -->
  <path fill="url(#ai_box_gradient)" fill-rule="evenodd" d="M 50 0 H 150 A 50 50 0 0 1 200 50 V 150 A 50 50 0 0 1 150 200 H 50 A 50 50 0 0 1 0 150 V 50 A 50 50 0 0 1 50 0 Z M 56 31 H 144 A 25 25 0 0 1 169 56 V 144 A 25 25 0 0 1 144 169 H 56 A 25 25 0 0 1 31 144 V 56 A 25 25 0 0 1 56 31 Z"/>

  <!-- Center mark -->
  <rect x="69" y="69" width="62" height="62" rx="13" ry="13" fill="url(#ai_box_gradient)"/>
</svg>
